<?xml version="1.0" encoding="UTF-8" standalone="no"?>
<!-- Created with Inkscape (http://www.inkscape.org/) -->

<svg
   xmlns:dc="http://purl.org/dc/elements/1.1/"
   xmlns:cc="http://creativecommons.org/ns#"
   xmlns:rdf="http://www.w3.org/1999/02/22-rdf-syntax-ns#"
   xmlns:svg="http://www.w3.org/2000/svg"
   xmlns="http://www.w3.org/2000/svg"
   xmlns:sodipodi="http://sodipodi.sourceforge.net/DTD/sodipodi-0.dtd"
   xmlns:inkscape="http://www.inkscape.org/namespaces/inkscape"
   width="64"
   height="64"
   viewBox="0 0 16.933336 16.933333"
   version="1.1"
   id="svg825"
   inkscape:version="0.92.3 (2405546, 2018-03-11)"
   sodipodi:docname="icon.svg">
  <defs
     id="defs819" />
  <sodipodi:namedview
     id="base"
     pagecolor="#ffffff"
     bordercolor="#666666"
     borderopacity="1.0"
     inkscape:pageopacity="0.0"
     inkscape:pageshadow="2"
     inkscape:zoom="1.01"
     inkscape:cx="-305.40969"
     inkscape:cy="146.14879"
     inkscape:document-units="mm"
     inkscape:current-layer="layer1"
     showgrid="false"
     inkscape:window-width="1920"
     inkscape:window-height="1027"
     inkscape:window-x="-8"
     inkscape:window-y="-8"
     inkscape:window-maximized="1"
     units="px" />
  <metadata
     id="metadata822">
    <rdf:RDF>
      <cc:Work
         rdf:about="">
        <dc:format>image/svg+xml</dc:format>
        <dc:type
           rdf:resource="http://purl.org/dc/dcmitype/StillImage" />
        <dc:title></dc:title>
      </cc:Work>
    </rdf:RDF>
  </metadata>
  <g
     inkscape:label="Layer 1"
     inkscape:groupmode="layer"
     id="layer1"
     transform="translate(-46.902224,-170.56853)">
    <g
       id="g4520"
       transform="matrix(0.5349174,0,0,0.52283304,21.813409,89.469697)">
      <path
         style="fill:#e90810;fill-opacity:1;stroke-width:0.26458332"
         d="m 61.775423,185.68647 c -0.995959,-1.83221 -2.099493,-3.63007 -2.857041,-5.57569 0.909546,-1.9729 1.87383,0.94593 2.412921,1.82999 0.888714,1.66644 1.810348,3.31744 2.640061,5.01396 -1.03899,1.51714 -1.662116,-0.52369 -2.195941,-1.26826 z m -4.565193,-0.2556 c -0.30548,-2.42756 -0.886035,-4.82969 -0.995934,-7.27604 1.800956,-0.85731 1.426318,2.12789 1.777969,3.16585 0.243369,1.6769 0.514702,3.35122 0.695093,5.03624 -0.722468,0.89932 -1.588719,0.003 -1.477128,-0.92605 z m 9.003781,-0.62967 c -1.41029,-1.33701 -3.057842,-2.47957 -4.201915,-4.06123 0.552602,-1.90569 2.509944,0.89528 3.38736,1.4373 1.108928,1.08304 2.396681,1.99098 3.421409,3.1518 0.09034,2.12191 -1.98996,0.003 -2.606854,-0.52787 z m -13.0233,-0.43653 c -1.289186,-0.41147 0.152641,-2.51316 0.0836,-3.64902 0.345478,-1.63529 0.660989,-3.2782 1.056983,-4.90198 2.124137,-0.59036 0.803813,2.21007 0.719851,3.30105 -0.384401,1.76292 -0.682794,3.54863 -1.172556,5.28601 -0.229957,0.0378 -0.460597,-0.006 -0.687879,-0.0361 z m 15.354993,-2.38584 c -1.046714,-0.73542 -3.540001,-0.74289 -3.537052,-2.25191 0.860599,-0.84198 2.680013,0.6716 3.924731,0.8796 1.444777,0.57598 2.946342,1.04427 4.320613,1.77371 0.126583,2.06938 -2.367472,0.40876 -3.398937,0.11677 -0.437287,-0.1706 -0.873712,-0.34341 -1.309355,-0.51817 z m -19.069245,-1.57504 c -0.655493,-1.38281 1.221807,-2.78268 1.73116,-4.08858 0.93167,-1.00269 1.358316,-3.1975 2.817522,-3.3376 1.406402,0.65871 -0.824135,2.27786 -1.104863,3.30419 -0.942335,1.45555 -1.846657,2.93927 -2.69337,4.44962 -0.264251,0.26815 -0.548699,-0.22332 -0.750449,-0.32763 z m 18.104979,-1.30788 c -0.438812,-2.17807 2.125291,-1.13057 3.336583,-1.21596 1.828514,0.096 3.659717,0.0715 5.48988,0.0766 -0.131874,0.4081 0.290302,1.37836 -0.265828,1.356 -2.853018,-0.0631 -5.714378,-0.0209 -8.560635,-0.2166 z m 1.947293,-2.44079 c -0.519077,-1.57774 2.063092,-1.51034 3.019339,-2.11715 1.681211,-0.48204 3.323423,-1.34024 5.088266,-1.37714 1.099972,1.31823 -1.805049,1.51675 -2.670856,2.04751 -1.778546,0.55177 -3.520401,1.32644 -5.354088,1.63265 l -0.07009,-0.0686 z m -22.092504,-1.07975 c -0.709233,-1.36678 1.87242,-2.15008 2.670205,-3.13157 1.289666,-0.79326 2.402041,-2.33268 3.903221,-2.52396 0.981405,1.51638 -1.871082,2.25317 -2.633916,3.28965 -1.186761,0.92425 -2.364611,1.86363 -3.449102,2.90777 -0.163469,-0.18063 -0.326939,-0.36126 -0.490408,-0.54189 z m 23.13012,-2.00956 c -0.228009,-1.31287 1.85176,-2.00907 2.656715,-2.95607 1.268291,-0.92624 2.381429,-2.14009 3.834809,-2.76816 1.678959,0.87479 -1.166082,2.12491 -1.81711,2.94517 -1.340005,1.07537 -2.636705,2.2236 -4.089989,3.14356 -0.244887,0.018 -0.431591,-0.20759 -0.584425,-0.3645 z m 0.219155,-2.78279 c -1.106562,-1.0486 0.92958,-2.52518 1.286788,-3.69084 0.886484,-1.41365 1.688789,-2.89855 2.721559,-4.20862 1.964447,0.78135 -0.468965,2.79553 -0.873149,3.9637 -0.876972,1.34429 -1.628818,2.81959 -2.611706,4.06509 -0.183628,0.0271 -0.365084,-0.0451 -0.523492,-0.12933 z m -23.883055,-0.51344 c -0.02732,-1.54276 2.467135,-1.30829 3.558033,-1.9797 1.539758,-0.48212 3.064082,-1.04021 4.635511,-1.40402 0.933024,1.76521 -2.163985,1.71853 -3.170977,2.34314 -1.558196,0.48422 -3.099258,1.08385 -4.664927,1.50614 -0.1921,-0.0791 -0.293986,-0.2817 -0.35764,-0.46556 z m 22.957013,-2.31943 c -1.317687,-0.64809 0.09755,-2.64572 0.03899,-3.8528 0.334454,-1.61512 0.65487,-3.23706 0.980333,-4.85152 2.026496,-0.22373 0.68555,2.44697 0.662737,3.5966 -0.334311,1.68832 -0.655825,3.37985 -1.029325,5.05995 -0.183011,0.13209 -0.447233,0.0524 -0.652735,0.0478 z m -21.401714,-2.56146 c -0.343561,-2.05247 2.65989,-0.62765 3.80251,-0.95012 1.698979,0.0346 3.398421,0.0179 5.097642,0.0242 -0.133784,0.39581 0.292494,1.35168 -0.265856,1.32292 -2.701879,-0.0381 -5.413205,0.10171 -8.107198,-0.12599 -0.17774,-0.0456 -0.442677,-0.0678 -0.527098,-0.27097 z m 18.823576,0.0334 c -0.473681,-2.72634 -0.874989,-5.47231 -1.146631,-8.22615 1.942419,-1.14715 1.438952,2.13585 1.806874,3.20461 0.207517,1.61251 0.42701,3.22588 0.698394,4.82759 -0.181961,0.41999 -1.067616,0.55077 -1.358637,0.19395 z m -10.320299,-1.91338 c -1.725262,-0.68418 -3.494665,-1.30724 -5.131312,-2.17912 -0.951874,-1.66047 1.762727,-0.72547 2.524102,-0.34113 1.896789,0.75611 3.856989,1.41267 5.649919,2.38959 -0.394901,1.65518 -2.062411,0.3558 -3.042709,0.13066 z m 5.813131,-3.0289 c -0.356244,-1.31436 -2.461494,-3.0115 -1.342618,-4.23836 1.135692,-0.33601 1.470538,2.02802 2.214487,2.85177 0.752482,1.56029 1.862707,3.02432 2.183271,4.74253 -1.1443,1.09188 -1.773972,-1.50232 -2.436548,-2.25361 -0.209888,-0.36536 -0.415949,-0.73291 -0.618592,-1.10233 z m -3.466334,0.90979 c -1.14257,-1.03815 -2.344791,-2.0171 -3.435816,-3.10777 0.05905,-1.38399 1.443608,-1.06858 1.960372,-0.0832 1.658885,1.58894 3.57057,2.93854 5.047109,4.70049 -0.37263,2.16266 -2.212609,-0.52358 -3.134512,-1.12349 -0.14582,-0.12857 -0.291536,-0.25726 -0.437153,-0.38606 z"
         id="path1384"
         inkscape:connector-curvature="0" />
    </g>
  </g>
</svg>
